<?xml version="1.0" standalone="no"?><!DOCTYPE svg PUBLIC "-//W3C//DTD SVG 1.1//EN" "http://www.w3.org/Graphics/SVG/1.1/DTD/svg11.dtd"><svg t="1779235816546" class="icon" viewBox="0 0 1024 1024" version="1.1" xmlns="http://www.w3.org/2000/svg" p-id="1800" xmlns:xlink="http://www.w3.org/1999/xlink" width="200" height="200"><path d="M146.655769 665.281905a165.959861 69.149942 45 1 0 234.702686 234.702686 165.959861 69.149942 45 1 0-234.702686-234.702686Z" fill="#D1D7B3" p-id="1801"></path><path d="M347.610165 418.932098c142.904598 39.185569 235.113415 130.240432 276.606894 273.14503 108.334848-41.4837 191.312027-88.746953 248.941315-141.760422L724.484002 349.792599l93.343214-131.384608L624.226838 62.80989l-276.606894 356.112429z" fill="#65B62F" p-id="1802"></path><path d="M375.265964 809.633836l224.747381-221.285516 221.265957-131.374828 48.417208 79.515314-235.113416 124.470658-235.103636 238.565501z" fill="#000000" fill-opacity=".253" p-id="1803"></path><path d="M727.980485 133.058318c-28.614246-21.464142-63.853056-39.083547-105.647281-53.010345L620.203386 79.411793a27.659977 27.659977 0 0 0-28.904676 10.510791L377.39028 381.59704 134.397384 624.589935c-37.990978 38.004808 5.158586 121.247508 84.224629 201.544421l7.606494 7.606494 7.661813 7.426704c77.890495 74.308528 157.108668 113.599525 193.896437 76.797925l242.246077-242.246076 202.60933-125.410335a27.659977 27.659977 0 0 0 11.89379-31.573864c-12.654439-41.572945-31.158964-74.861727-55.804003-99.506766-24.29929-24.29929-47.69963-39.913346-70.947841-46.247481l-2.364928-0.53937a27.659977 27.659977 0 0 0-18.532184 3.139408l-50.507118 28.531266 115.591043-154.093731a27.659977 27.659977 0 0 0 1.590449-30.840874c-21.339672-35.54307-46.524081-64.323276-75.580887-86.119338z m17.149186 97.556738l1.064909 1.548959L562.878084 476.60906l-1.327679 1.908538c-15.199157 23.67694 11.67251 53.120985 37.064369 38.765458l154.27352-87.198077 0.35958 0.16596c10.579941 5.255396 22.819481 14.521488 36.37287 28.088706l3.084087 3.208557c12.21188 13.138489 22.612031 30.121715 31.075984 51.046488l0.912779 2.323438-186.538883 115.480403-1.770239 1.203209a27.659977 27.659977 0 0 0-3.236217 2.765997l-242.301397 242.301397-0.871289-0.04149a30.674914 30.674914 0 0 1-2.655358-0.30426c-7.620324-1.203209-18.380055-5.227736-31.048324-11.93528-28.351476-15.019367-62.400908-41.213365-94.73542-73.547878-32.334513-32.348343-58.542341-66.383944-73.547878-94.735421-6.707544-12.682099-10.732071-23.428-11.93528-31.048324l-0.19362-1.438318-0.12447-1.217039-0.04149-0.87129 242.301397-242.301396 1.438318-1.548959 1.313849-1.659598L623.674713 139.295643l2.254288 0.871289c27.079117 10.621431 50.023068 23.026931 68.859512 37.161179 18.476864 13.857648 35.26647 31.587693 50.341158 53.300775z" fill="#191919" p-id="1804"></path><path d="M320.217108 732.159585c64.558386 64.558386 98.151428 136.543475 68.458442 166.23646l-19.569433-19.541773c13.235299-13.249129-13.096999-70.519111-65.236056-123.875206l-3.222387-3.263877c-54.255044-54.255044-113.613355-81.956511-127.125253-68.458443l-19.555604-19.555603c29.692985-29.692985 101.691905 3.900057 166.236461 68.458442z" fill="#191919" p-id="1805"></path></svg>